<?xml version="1.0" encoding="UTF-8" standalone="no"?>
<svg
   width="720"
   height="176"
   viewBox="0 0 720 176"
   version="1.1"
   id="svg26"
   sodipodi:docname="shelfsprite-logo-dark-source.svg"
   xmlns:inkscape="http://www.inkscape.org/namespaces/inkscape"
   xmlns:sodipodi="http://sodipodi.sourceforge.net/DTD/sodipodi-0.dtd"
   xmlns="http://www.w3.org/2000/svg"
   xmlns:svg="http://www.w3.org/2000/svg">
  <defs
     id="defs30" />
  <sodipodi:namedview
     id="namedview28"
     pagecolor="#ffffff"
     bordercolor="#000000"
     borderopacity="0.25"
     inkscape:showpageshadow="2"
     inkscape:pageopacity="0.0"
     inkscape:pagecheckerboard="0"
     inkscape:deskcolor="#d1d1d1" />
  <g
     transform="translate(8 8) scale(2.5)"
     id="g22">
    <rect
       width="64"
       height="64"
       rx="12"
       fill="#161412"
       id="rect2" />
    <path
       d="M32 8c-6 4-9 9-9 15-4 2-6 6-6 10 0 7 6 12 15 12s15-5 15-12c0-4-2-8-6-10 0-6-3-11-9-15Z"
       fill="#ff5c3a"
       id="path4" />
    <path
       d="M21 31c0-6 5-10 11-10s11 4 11 10-5 9-11 9-11-3-11-9Z"
       fill="#161412"
       id="path6" />
    <circle
       cx="27"
       cy="30"
       r="3"
       fill="#f5f0e8"
       id="circle8" />
    <circle
       cx="37"
       cy="30"
       r="3"
       fill="#f5f0e8"
       id="circle10" />
    <path
       d="M5 36c9-2 18 0 27 7v14C23 51 14 49 5 51V36Z"
       fill="#ff5c3a"
       id="path12" />
    <path
       d="M59 36c-9-2-18 0-27 7v14c9-6 18-8 27-6V36Z"
       fill="#ff7355"
       id="path14" />
    <path
       d="M9 40c7-1 13 1 19 5"
       fill="none"
       stroke="#f5f0e8"
       stroke-width="2"
       stroke-linecap="round"
       id="path16" />
    <path
       d="M55 40c-7-1-13 1-19 5"
       fill="none"
       stroke="#f5f0e8"
       stroke-width="2"
       stroke-linecap="round"
       id="path18" />
    <path
       d="M32 43v14"
       fill="none"
       stroke="#2a2420"
       stroke-width="2"
       stroke-linecap="round"
       id="path20" />
  </g>
  <g
     aria-label="ShelfSprite"
     id="text24"
     style="font-weight:800;font-size:78px;font-family:'Bricolage Grotesque';letter-spacing:-2;fill:#f5f0e8">
    <path
       d="m 221.322,113.092 q -5.46,0 -9.594,-1.248 -4.056,-1.248 -6.786,-3.588 -2.73,-2.34 -4.056,-5.616 -1.248,-3.354 -1.092,-7.41 l 11.7,-2.574 q 0.156,3.588 1.482,5.85 1.404,2.184 3.744,3.276 2.34,1.014 5.226,1.014 2.34,0 4.134,-0.546 1.794,-0.624 2.808,-1.638 1.092,-1.092 1.092,-2.496 0,-1.872 -1.404,-3.042 -1.404,-1.248 -3.9,-2.106 -2.418,-0.858 -5.538,-1.716 -3.354,-0.936 -6.708,-2.028 -3.276,-1.17 -6.006,-2.886 -2.73,-1.716 -4.446,-4.446 -1.638,-2.73 -1.638,-6.786 0,-4.992 2.496,-8.502 2.574,-3.51 7.02,-5.304 4.524,-1.872 10.296,-1.872 6.084,0 10.842,2.106 4.758,2.028 7.332,6.006 2.574,3.978 2.028,9.75 l -11.544,1.872 q 0.078,-2.34 -0.468,-4.134 -0.546,-1.794 -1.716,-3.042 -1.092,-1.248 -2.808,-1.872 -1.716,-0.702 -4.056,-0.702 -2.418,0 -4.056,0.624 -1.56,0.624 -2.418,1.716 -0.78,1.092 -0.78,2.496 0,1.638 1.248,2.73 1.248,1.092 3.588,1.95 2.34,0.78 5.538,1.638 3.354,0.936 6.708,2.106 3.432,1.092 6.318,2.964 2.886,1.794 4.602,4.68 1.794,2.886 1.794,7.332 0,5.148 -2.73,8.58 -2.652,3.432 -7.41,5.148 -4.68,1.716 -10.842,1.716 z"
       id="path32" />
    <path
       d="M 244.43793,112 V 90.238 57.4 h 12.636 v 10.296 q 0,1.638 -0.234,4.368 -0.156,2.652 -0.546,5.694 -0.312,3.042 -0.702,5.85 -0.312,2.73 -0.546,4.602 h 0.702 q 0.702,-6.474 2.418,-10.53 1.716,-4.134 4.68,-6.006 2.964,-1.95 7.176,-1.95 6.63,0 9.828,4.758 3.198,4.68 3.198,14.196 V 112 h -12.636 V 89.224 q 0,-4.368 -1.17,-6.396 -1.17,-2.028 -3.822,-2.028 -2.34,0 -4.212,1.794 -1.872,1.716 -3.042,5.538 -1.092,3.822 -1.092,9.906 V 112 Z"
       id="path34" />
    <path
       d="m 305.85195,113.092 q -5.85,0 -9.828,-1.638 -3.9,-1.716 -6.318,-4.602 -2.418,-2.964 -3.51,-6.708 -1.014,-3.744 -1.014,-7.878 0,-4.446 1.092,-8.502 1.17,-4.056 3.51,-7.176 2.418,-3.198 6.162,-4.992 3.822,-1.872 9.126,-1.872 5.304,0 9.048,1.872 3.822,1.794 6.084,5.07 2.262,3.276 2.886,7.566 0.702,4.29 -0.156,9.282 l -29.874,0.468 v -6.864 l 20.202,-0.39 -1.638,3.978 q 0.468,-3.588 -0.156,-6.006 -0.546,-2.496 -2.106,-3.744 -1.56,-1.326 -4.29,-1.326 -2.886,0 -4.602,1.482 -1.716,1.482 -2.418,4.212 -0.702,2.652 -0.702,6.318 0,6.318 2.106,9.204 2.106,2.886 6.474,2.886 1.872,0 3.12,-0.468 1.248,-0.468 2.028,-1.326 0.78,-0.936 1.092,-2.184 0.312,-1.326 0.234,-2.964 l 11.544,0.624 q 0.234,2.574 -0.546,5.304 -0.702,2.73 -2.73,5.07 -2.028,2.34 -5.694,3.822 -3.588,1.482 -9.126,1.482 z"
       id="path36" />
    <path
       d="M 326.31606,112 V 57.4 h 12.636 V 112 Z"
       id="path38" />
    <path
       d="M 346.46808,112 V 86.806 h -5.694 v -9.048 l 12.558,0.858 v -0.624 q -4.758,-0.546 -7.176,-2.262 -2.418,-1.716 -3.276,-3.9 -0.78,-2.184 -0.78,-3.978 0,-3.51 1.872,-6.084 1.95,-2.652 5.304,-4.056 3.432,-1.404 7.722,-1.404 3.51,0 6.24,0.936 2.808,0.936 5.07,2.73 l -1.014,11.544 q -2.106,-1.482 -4.056,-2.184 -1.95,-0.78 -3.978,-0.78 -2.34,0 -3.9,1.014 -1.482,1.014 -1.482,3.198 0,1.17 0.624,2.184 0.624,1.014 1.95,1.638 1.404,0.546 3.744,0.546 h 7.8 v 9.672 h -9.048 V 112 Z"
       id="path40" />
    <path
       d="m 390.56602,113.092 q -5.46,0 -9.594,-1.248 -4.056,-1.248 -6.786,-3.588 -2.73,-2.34 -4.056,-5.616 -1.248,-3.354 -1.092,-7.41 l 11.7,-2.574 q 0.156,3.588 1.482,5.85 1.404,2.184 3.744,3.276 2.34,1.014 5.226,1.014 2.34,0 4.134,-0.546 1.794,-0.624 2.808,-1.638 1.092,-1.092 1.092,-2.496 0,-1.872 -1.404,-3.042 -1.404,-1.248 -3.9,-2.106 -2.418,-0.858 -5.538,-1.716 -3.354,-0.936 -6.708,-2.028 -3.276,-1.17 -6.006,-2.886 -2.73,-1.716 -4.446,-4.446 -1.638,-2.73 -1.638,-6.786 0,-4.992 2.496,-8.502 2.574,-3.51 7.02,-5.304 4.524,-1.872 10.296,-1.872 6.084,0 10.842,2.106 4.758,2.028 7.332,6.006 2.574,3.978 2.028,9.75 l -11.544,1.872 q 0.078,-2.34 -0.468,-4.134 -0.546,-1.794 -1.716,-3.042 -1.092,-1.248 -2.808,-1.872 -1.716,-0.702 -4.056,-0.702 -2.418,0 -4.056,0.624 -1.56,0.624 -2.418,1.716 -0.78,1.092 -0.78,2.496 0,1.638 1.248,2.73 1.248,1.092 3.588,1.95 2.34,0.78 5.538,1.638 3.354,0.936 6.708,2.106 3.432,1.092 6.318,2.964 2.886,1.794 4.602,4.68 1.794,2.886 1.794,7.332 0,5.148 -2.73,8.58 -2.652,3.432 -7.41,5.148 -4.68,1.716 -10.842,1.716 z"
       id="path42" />
    <path
       d="M 413.68196,123.544 V 85.48 70.816 h 11.076 V 83.53 h 0.546 q 0.858,-4.602 2.574,-7.644 1.716,-3.12 4.368,-4.602 2.73,-1.56 6.552,-1.56 4.836,0 8.19,2.496 3.432,2.418 5.148,7.254 1.794,4.758 1.794,11.778 0,7.566 -2.028,12.402 -1.95,4.836 -5.382,7.176 -3.432,2.262 -7.8,2.262 -3.51,0 -6.24,-1.482 -2.652,-1.482 -4.446,-4.524 -1.716,-3.12 -2.418,-7.8 h -0.702 q 0.39,2.262 0.702,4.758 0.312,2.418 0.468,4.836 0.234,2.34 0.234,4.524 v 10.14 z m 20.28,-20.826 q 2.496,0 4.056,-1.56 1.638,-1.56 2.34,-4.056 0.78,-2.574 0.78,-5.382 0,-3.12 -0.858,-5.616 -0.78,-2.574 -2.418,-4.056 -1.56,-1.56 -3.9,-1.56 -1.482,0 -2.886,0.702 -1.404,0.624 -2.496,2.028 -1.092,1.326 -1.794,3.432 -0.624,2.106 -0.624,5.07 v 0.468 q 0,2.34 0.468,4.056 0.468,1.716 1.248,2.964 0.78,1.248 1.794,2.028 1.014,0.78 2.106,1.17 1.092,0.312 2.184,0.312 z"
       id="path44" />
    <path
       d="M 456.60997,112 V 89.614 70.816 h 10.92 v 16.38 h 0.624 q 0.468,-6.552 1.794,-10.296 1.404,-3.822 3.432,-5.382 2.106,-1.638 4.68,-1.638 1.404,0 2.886,0.39 1.56,0.39 3.042,1.248 l -0.624,14.04 q -1.716,-1.014 -3.354,-1.482 -1.638,-0.546 -3.12,-0.546 -2.496,0 -4.212,1.404 -1.716,1.404 -2.652,4.134 -0.858,2.73 -0.858,6.63 V 112 Z"
       id="path46" />
    <path
       d="M 485.80995,112 V 70.816 h 12.636 V 112 Z m 6.24,-44.148 q -3.588,0 -5.538,-1.482 -1.872,-1.56 -1.872,-4.446 0,-2.964 1.872,-4.446 1.95,-1.56 5.538,-1.56 3.666,0 5.538,1.56 1.95,1.56 1.95,4.446 0,2.808 -1.95,4.368 -1.872,1.56 -5.538,1.56 z"
       id="path48" />
    <path
       d="m 518.51988,112.936 q -7.254,0 -10.842,-3.666 -3.51,-3.744 -3.51,-11.544 V 80.644 h -4.524 v -7.956 h 0.234 q 4.836,-0.624 6.864,-3.198 2.028,-2.652 2.496,-7.956 v -0.156 h 7.41 v 9.438 h 9.438 v 10.14 h -9.438 v 15.6 q 0,2.964 1.404,4.212 1.482,1.248 3.588,1.248 1.092,0 2.262,-0.312 1.17,-0.312 2.184,-0.858 v 10.998 q -2.418,0.702 -4.29,0.858 -1.872,0.234 -3.276,0.234 z"
       id="path50" />
    <path
       d="m 547.01787,113.092 q -5.85,0 -9.828,-1.638 -3.9,-1.716 -6.318,-4.602 -2.418,-2.964 -3.51,-6.708 -1.014,-3.744 -1.014,-7.878 0,-4.446 1.092,-8.502 1.17,-4.056 3.51,-7.176 2.418,-3.198 6.162,-4.992 3.822,-1.872 9.126,-1.872 5.304,0 9.048,1.872 3.822,1.794 6.084,5.07 2.262,3.276 2.886,7.566 0.702,4.29 -0.156,9.282 l -29.874,0.468 v -6.864 l 20.202,-0.39 -1.638,3.978 q 0.468,-3.588 -0.156,-6.006 -0.546,-2.496 -2.106,-3.744 -1.56,-1.326 -4.29,-1.326 -2.886,0 -4.602,1.482 -1.716,1.482 -2.418,4.212 -0.702,2.652 -0.702,6.318 0,6.318 2.106,9.204 2.106,2.886 6.474,2.886 1.872,0 3.12,-0.468 1.248,-0.468 2.028,-1.326 0.78,-0.936 1.092,-2.184 0.312,-1.326 0.234,-2.964 l 11.544,0.624 q 0.234,2.574 -0.546,5.304 -0.702,2.73 -2.73,5.07 -2.028,2.34 -5.694,3.822 -3.588,1.482 -9.126,1.482 z"
       id="path52" />
  </g>
</svg>
